# xmcd
#
# Track frame offsets:
#	150
#	21449
#	32797
#	47211
#	55818
#	68161
#	79762
#	87487
#	101988
#	117300
#	132163
#	155882
#	183703
#	202827
#	219416
#	238135
#	260377
#	277826
#	299070
#	320484
#
# Disc length: 4559 seconds
#
# Revision: 1
# Processed by: cddbd v1.4PL0 Copyright (c) Steve Scherf et al.
# Submitted via: audiograbber 1.82.02
#
DISCID=3611cd14
DTITLE=Maxime le forestier - Essentielles
DYEAR=1900
DGENRE=
TTITLE0=San Francisco
TTITLE1=Education sentimentale
TTITLE2=Comme un arbre
TTITLE3=Fontenay Aux Roses
TTITLE4=Marie-Pierre et Charlemagne
TTITLE5=Parachutiste
TTITLE6=Dialogue
TTITLE7=Saltimbanque
TTITLE8=Je veux quitter ce monde heureux
TTITLE9=Aproximative
TTITLE10=La salle des pas perdus
TTITLE11=Les jours meilleurs
TTITLE12=Né quelque part
TTITLE13=Ambalaba
TTITLE14=Bille de verre
TTITLE15=Passer ma route
TTITLE16=Chienne d'idée
TTITLE17=Marin du cap
TTITLE18=Raymonde
TTITLE19=Mon frère(live)
EXTD=
EXTT0=
EXTT1=
EXTT2=
EXTT3=
EXTT4=
EXTT5=
EXTT6=
EXTT7=
EXTT8=
EXTT9=
EXTT10=
EXTT11=
EXTT12=
EXTT13=
EXTT14=
EXTT15=
EXTT16=
EXTT17=
EXTT18=
EXTT19=
PLAYORDER=
